<svg version="1.1" xmlns="http://www.w3.org/2000/svg" viewBox="0 0 250 250"><desc>Created with Snap</desc><defs></defs><g transform="matrix(0.0452,0,0,0.0452,10.507,135.0454)"><g><g transform="matrix(0.5,0,0,-0.5,0,0)"><path d="M2198 -444L2204 -464Q2170 -489 2130 -498Q2091 -507 2051 -507Q1914 -507 1807 -467Q1701 -426 1620 -355Q1540 -284 1483 -188Q1427 -92 1389 19Q1352 130 1332 251Q1312 372 1305 492Q1298 613 1301 728Q1305 844 1315 943Q1297 916 1271 857Q1245 798 1213 719Q1182 640 1148 546Q1114 453 1080 358Q1047 263 1015 171Q984 80 959 5Q935 -70 917 -123Q900 -175 895 -193Q891 -205 884 -223Q878 -241 868 -258Q859 -275 846 -287Q834 -299 818 -299Q800 -299 788 -285Q776 -270 768 -250Q761 -230 756 -210Q752 -190 750 -178Q744 -136 739 -72Q734 -8 730 70Q727 148 725 236Q723 325 721 414Q720 504 719 590Q719 677 718 752Q718 828 718 888Q718 948 718 984Q696 934 665 857Q635 780 599 684Q564 588 525 477Q487 367 449 250Q412 133 377 14Q343 -105 316 -217Q313 -227 308 -242Q304 -256 297 -269Q290 -282 279 -292Q269 -301 254 -301Q240 -301 229 -292Q218 -283 210 -271Q203 -258 198 -244Q194 -229 193 -217Q188 -192 184 -162Q181 -132 178 -101Q176 -69 174 -39Q172 -8 170 18Q159 155 154 289Q150 423 150 559Q150 693 154 825Q159 957 168 1092Q171 1131 177 1179Q183 1228 200 1271Q218 1314 251 1343Q285 1372 343 1372Q357 1372 367 1365Q377 1359 377 1343L377 1333Q368 1273 359 1213Q350 1154 340 1092Q316 892 299 692Q283 493 283 291Q283 212 286 135Q289 58 297 -20Q366 194 418 359Q471 524 511 648Q551 772 578 859Q606 947 625 1006Q644 1065 655 1100Q666 1136 673 1155Q680 1175 683 1184Q686 1193 689 1200Q704 1234 730 1261Q756 1288 797 1288Q825 1288 842 1274Q860 1260 870 1239Q880 1218 883 1193Q887 1168 887 1147Q885 992 878 840Q871 689 866 540Q861 391 861 244Q862 97 875 -49Q915 69 949 173Q983 278 1013 373Q1044 468 1072 556Q1101 644 1131 730Q1162 816 1195 902Q1228 988 1268 1079Q1277 1097 1288 1115Q1299 1134 1313 1149Q1327 1164 1345 1174Q1363 1184 1385 1184Q1416 1184 1434 1164Q1452 1144 1461 1116Q1471 1088 1474 1057Q1477 1027 1477 1006Q1477 914 1471 802Q1465 691 1462 571Q1460 451 1465 328Q1470 205 1492 90Q1514 -25 1557 -125Q1600 -225 1673 -300Q1746 -374 1853 -417Q1961 -460 2112 -460Q2135 -460 2156 -457Q2178 -453 2198 -444ZM2207 1133Q2207 1123 2204 1115Q2202 1108 2199 1100Q2182 1060 2163 1021Q2144 983 2133 940Q2096 790 2077 637Q2059 484 2053 329Q2118 315 2169 283Q2221 251 2270 207Q2365 247 2442 307Q2520 367 2575 445Q2630 523 2660 618Q2690 713 2690 821Q2690 881 2672 943Q2655 1006 2623 1065Q2592 1124 2548 1176Q2505 1228 2452 1266Q2399 1305 2338 1327Q2278 1350 2213 1350Q2151 1350 2084 1327Q2018 1304 1963 1262Q1908 1221 1873 1163Q1838 1105 1838 1036Q1838 1009 1844 987Q1851 966 1858 948Q1866 930 1872 914Q1879 899 1879 883Q1879 854 1859 834Q1840 815 1812 815Q1786 815 1771 829Q1756 843 1747 864Q1739 885 1736 908Q1734 932 1734 950Q1734 1038 1776 1109Q1818 1180 1884 1237Q1926 1273 1968 1300Q2011 1327 2056 1346Q2102 1365 2151 1374Q2200 1384 2256 1384Q2336 1384 2410 1364Q2485 1344 2550 1307Q2616 1270 2670 1218Q2725 1166 2764 1102Q2803 1038 2824 963Q2846 889 2846 807Q2846 686 2802 584Q2759 482 2685 401Q2611 321 2513 262Q2415 204 2307 171Q2318 160 2328 150Q2339 140 2350 129Q2410 70 2469 4Q2529 -62 2592 -127Q2655 -192 2722 -252Q2789 -311 2864 -357Q2939 -402 3023 -429Q3108 -456 3205 -456Q3222 -456 3237 -455Q3253 -453 3270 -448L3275 -468Q3231 -491 3182 -501Q3133 -511 3082 -511Q2976 -511 2889 -490Q2802 -468 2728 -429Q2654 -390 2591 -336Q2528 -281 2470 -216Q2412 -151 2356 -78Q2301 -4 2242 74Q2229 91 2216 108Q2204 126 2192 143Q2156 137 2120 133Q2085 130 2050 129Q2050 7 2056 -112Q2062 -231 2070 -346L2051 -352Q2010 -246 1988 -120Q1967 6 1956 134Q1930 138 1905 145Q1880 152 1859 164Q1839 177 1826 195Q1814 214 1814 240Q1814 264 1826 281Q1838 299 1857 310Q1877 322 1900 328Q1923 335 1946 337Q1945 365 1945 392Q1945 420 1945 446Q1945 487 1945 548Q1946 609 1950 678Q1955 747 1965 818Q1975 890 1992 953Q2010 1016 2037 1065Q2065 1114 2105 1137Q2120 1146 2138 1153Q2156 1161 2176 1161Q2207 1161 2207 1133ZM1849 236Q1849 222 1858 211Q1867 200 1882 191Q1897 183 1915 177Q1934 171 1954 167Q1952 201 1950 234Q1949 268 1947 301Q1930 301 1912 299Q1895 297 1881 290Q1867 283 1858 270Q1849 258 1849 236ZM2050 158Q2081 158 2111 162Q2141 166 2170 173Q2145 207 2116 235Q2088 264 2051 281Q2050 250 2050 219Q2050 189 2050 158ZM5603 -444L5609 -464Q5575 -489 5535 -498Q5496 -507 5456 -507Q5319 -507 5212 -467Q5106 -426 5025 -355Q4945 -284 4888 -188Q4832 -92 4794 19Q4757 130 4737 251Q4717 372 4710 492Q4703 613 4706 728Q4710 844 4720 943Q4702 916 4676 857Q4650 798 4618 719Q4587 640 4553 546Q4519 453 4485 358Q4452 263 4420 171Q4389 80 4364 5Q4340 -70 4322 -123Q4305 -175 4300 -193Q4296 -205 4289 -223Q4283 -241 4273 -258Q4264 -275 4251 -287Q4239 -299 4223 -299Q4205 -299 4193 -285Q4181 -270 4173 -250Q4166 -230 4161 -210Q4157 -190 4155 -178Q4149 -136 4144 -72Q4139 -8 4135 70Q4132 148 4130 236Q4128 325 4126 414Q4125 504 4124 590Q4124 677 4123 752Q4123 828 4123 888Q4123 948 4123 984Q4101 934 4070 857Q4040 780 4004 684Q3969 588 3930 477Q3892 367 3854 250Q3817 133 3782 14Q3748 -105 3721 -217Q3718 -227 3713 -242Q3709 -256 3702 -269Q3695 -282 3684 -292Q3674 -301 3659 -301Q3645 -301 3634 -292Q3623 -283 3615 -271Q3608 -258 3603 -244Q3599 -229 3598 -217Q3593 -192 3589 -162Q3586 -132 3583 -101Q3581 -69 3579 -39Q3577 -8 3575 18Q3564 155 3559 289Q3555 423 3555 559Q3555 693 3559 825Q3564 957 3573 1092Q3576 1131 3582 1179Q3588 1228 3605 1271Q3623 1314 3656 1343Q3690 1372 3748 1372Q3762 1372 3772 1365Q3782 1359 3782 1343L3782 1333Q3773 1273 3764 1213Q3755 1154 3745 1092Q3721 892 3704 692Q3688 493 3688 291Q3688 212 3691 135Q3694 58 3702 -20Q3771 194 3823 359Q3876 524 3916 648Q3956 772 3983 859Q4011 947 4030 1006Q4049 1065 4060 1100Q4071 1136 4078 1155Q4085 1175 4088 1184Q4091 1193 4094 1200Q4109 1234 4135 1261Q4161 1288 4202 1288Q4230 1288 4247 1274Q4265 1260 4275 1239Q4285 1218 4288 1193Q4292 1168 4292 1147Q4290 992 4283 840Q4276 689 4271 540Q4266 391 4266 244Q4267 97 4280 -49Q4320 69 4354 173Q4388 278 4418 373Q4449 468 4477 556Q4506 644 4536 730Q4567 816 4600 902Q4633 988 4673 1079Q4682 1097 4693 1115Q4704 1134 4718 1149Q4732 1164 4750 1174Q4768 1184 4790 1184Q4821 1184 4839 1164Q4857 1144 4866 1116Q4876 1088 4879 1057Q4882 1027 4882 1006Q4882 914 4876 802Q4870 691 4867 571Q4865 451 4870 328Q4875 205 4897 90Q4919 -25 4962 -125Q5005 -225 5078 -300Q5151 -374 5258 -417Q5366 -460 5517 -460Q5540 -460 5561 -457Q5583 -453 5603 -444ZM5736 295Q5736 225 5713 165Q5690 105 5648 61Q5606 17 5547 -8Q5489 -33 5418 -33Q5355 -33 5304 -10Q5254 14 5218 54Q5182 94 5163 147Q5144 201 5144 262Q5144 313 5158 359Q5173 405 5199 444Q5225 484 5261 517Q5297 551 5339 578L5351 569Q5309 520 5285 461Q5261 402 5261 336Q5261 288 5275 238Q5290 189 5318 148Q5346 107 5388 81Q5430 55 5484 55Q5518 55 5548 69Q5578 83 5600 107Q5623 131 5636 161Q5650 192 5650 225Q5650 257 5640 287Q5631 318 5614 344Q5597 371 5573 392Q5549 414 5521 428Q5505 436 5490 440Q5476 444 5459 449Q5452 450 5444 452Q5436 455 5429 458Q5422 462 5417 468Q5412 474 5412 483Q5412 501 5425 516Q5438 531 5456 542Q5474 554 5494 560Q5514 567 5529 567Q5580 567 5619 541Q5658 515 5684 475Q5710 435 5723 387Q5736 339 5736 295ZM6612 157L6619 153Q6599 114 6573 78Q6547 42 6513 14Q6479 -14 6437 -31Q6395 -47 6342 -47Q6246 -47 6184 -3Q6123 41 6081 120Q6069 115 6057 111Q6046 108 6035 104Q6033 87 6031 73Q6029 59 6027 47Q6025 34 6022 19Q6019 4 6012 -9Q6005 -22 5993 -31Q5981 -39 5960 -39Q5930 -39 5918 -21Q5906 -2 5899 20Q5884 68 5871 136Q5859 204 5850 276Q5841 349 5836 420Q5831 491 5831 546Q5831 612 5835 685Q5839 759 5849 834Q5859 909 5876 982Q5894 1056 5921 1123Q5948 1190 5985 1247Q6023 1305 6074 1347Q6097 1366 6126 1380Q6156 1394 6185 1394Q6197 1394 6212 1388Q6228 1383 6228 1368Q6228 1360 6220 1349Q6077 1152 6013 930Q5949 709 5949 461Q5949 359 5958 264Q5968 170 5984 67Q5988 119 5995 178Q6003 238 6016 296Q6030 354 6051 407Q6072 461 6103 502Q6134 543 6175 567Q6217 592 6273 592Q6332 592 6371 557Q6410 523 6410 463Q6410 429 6399 396Q6388 363 6369 333Q6351 304 6327 278Q6304 252 6279 233Q6243 205 6200 179Q6216 148 6236 120Q6256 93 6280 72Q6304 52 6333 40Q6363 28 6399 28Q6431 28 6461 38Q6492 49 6519 66Q6546 84 6569 107Q6593 131 6612 157ZM6224 466Q6174 466 6142 434Q6110 403 6089 355Q6069 308 6058 251Q6047 194 6040 143Q6088 162 6131 189Q6175 217 6207 250Q6239 283 6258 320Q6277 358 6277 399Q6277 425 6263 445Q6250 466 6224 466ZM7426 151L7434 147Q7417 111 7392 75Q7368 40 7338 11Q7308 -17 7272 -35Q7236 -53 7195 -53Q7150 -53 7117 -30Q7084 -6 7061 32Q7038 71 7023 121Q7008 171 6998 224Q6988 277 6981 330Q6975 383 6969 427Q6937 385 6911 338Q6885 291 6861 240Q6837 190 6814 138Q6791 86 6765 35Q6759 24 6753 11Q6747 -1 6739 -12Q6731 -22 6720 -29Q6709 -36 6694 -36Q6680 -36 6670 -31Q6661 -26 6654 -19Q6648 -11 6644 -2Q6641 7 6639 15Q6627 58 6617 123Q6608 188 6601 262Q6594 336 6590 412Q6587 489 6587 554Q6587 647 6599 745Q6611 844 6636 938Q6662 1032 6701 1115Q6741 1199 6795 1262Q6849 1325 6918 1362Q6988 1399 7074 1399Q7131 1399 7164 1365Q7197 1332 7197 1270Q7197 1177 7164 1091Q7132 1006 7081 928Q7031 850 6969 780Q6908 711 6851 652L6838 662Q6863 690 6891 731Q6920 773 6947 821Q6975 870 7000 923Q7025 977 7044 1029Q7063 1081 7074 1129Q7085 1178 7085 1218Q7085 1239 7081 1258Q7077 1277 7067 1291Q7057 1306 7041 1314Q7026 1323 7004 1323Q6960 1323 6921 1289Q6883 1255 6851 1197Q6819 1140 6794 1064Q6770 988 6752 905Q6735 822 6726 737Q6717 652 6717 575Q6717 523 6717 470Q6717 417 6719 359Q6722 301 6728 236Q6735 171 6747 95Q6791 209 6840 318Q6889 428 6946 519Q6954 532 6962 545Q6971 558 6981 568Q6991 579 7003 586Q7015 593 7029 593Q7046 593 7056 583Q7066 574 7072 560Q7078 546 7080 530Q7083 514 7085 501Q7089 472 7094 426Q7099 380 7106 327Q7113 275 7123 222Q7134 169 7150 126Q7167 84 7190 57Q7213 30 7245 30Q7271 30 7297 41Q7323 52 7347 69Q7371 86 7391 108Q7412 130 7426 151ZM8050 147L8056 143Q8034 106 8004 74Q7975 42 7939 18Q7904 -6 7863 -20Q7822 -33 7778 -33Q7713 -33 7663 -11Q7614 11 7578 48Q7542 86 7518 136Q7494 186 7480 240Q7466 295 7460 352Q7454 409 7454 461Q7454 509 7458 559Q7462 610 7470 663Q7439 662 7409 662Q7380 662 7351 662Q7332 662 7308 663Q7284 664 7263 671Q7242 678 7228 692Q7214 706 7214 733Q7214 748 7219 757Q7225 766 7234 770Q7244 775 7256 776Q7269 778 7282 778Q7297 778 7353 773Q7409 768 7488 762Q7513 880 7552 994Q7592 1108 7642 1202L7656 1202Q7624 1093 7599 982Q7575 871 7563 757Q7636 752 7713 748Q7791 745 7865 745Q7974 745 8042 747Q8110 749 8149 752Q8195 756 8218 760L8222 743Q8162 729 8085 716Q8008 704 7921 694Q7834 685 7741 678Q7648 671 7556 667Q7554 647 7554 626Q7554 606 7554 586Q7554 538 7558 480Q7563 422 7575 363Q7587 305 7607 249Q7628 194 7661 151Q7695 109 7742 83Q7789 57 7853 57Q7912 57 7959 83Q8007 109 8050 147ZM8474 524Q8474 513 8466 504Q8458 496 8447 496Q8438 496 8428 501Q8418 507 8405 514Q8393 521 8376 526Q8360 532 8339 532Q8290 532 8251 501Q8213 471 8186 426Q8160 381 8146 330Q8132 279 8132 238Q8132 209 8137 181Q8142 154 8154 131Q8167 109 8189 95Q8211 82 8245 82Q8281 82 8314 95Q8347 109 8376 131Q8377 163 8386 198Q8396 234 8411 268Q8426 303 8445 334Q8465 365 8486 389L8499 381Q8488 347 8483 311Q8478 275 8478 240Q8478 204 8484 172Q8490 140 8505 116Q8520 93 8546 79Q8572 66 8613 66Q8663 66 8705 89Q8747 112 8779 147L8787 143Q8769 108 8740 76Q8711 44 8675 18Q8640 -7 8600 -22Q8560 -37 8521 -37Q8466 -37 8431 -6Q8396 26 8383 74Q8341 32 8289 3Q8238 -25 8181 -25Q8139 -25 8106 -10Q8074 6 8052 32Q8030 58 8018 93Q8007 129 8007 168Q8007 213 8021 260Q8036 308 8061 354Q8087 400 8122 441Q8157 482 8198 513Q8240 544 8286 562Q8332 580 8380 580Q8391 580 8407 577Q8423 575 8438 569Q8453 563 8463 552Q8474 541 8474 524ZM9498 147L9507 143Q9489 103 9461 71Q9434 39 9402 16Q9370 -6 9336 -19Q9302 -31 9271 -31Q9213 -31 9173 -11Q9133 9 9108 43Q9083 77 9072 123Q9061 169 9061 221Q9061 261 9067 304Q9073 347 9084 387Q9086 393 9088 401Q9090 410 9090 416Q9090 421 9084 424Q9067 430 9048 435Q9029 441 9010 448Q8992 455 8975 464Q8959 473 8947 487Q8946 427 8927 365Q8908 304 8876 247Q8845 191 8803 142Q8761 93 8714 57L8704 67Q8733 99 8757 143Q8781 187 8798 235Q8815 283 8824 332Q8834 381 8834 424Q8834 446 8830 465Q8826 485 8821 503Q8817 521 8813 537Q8809 554 8809 571Q8809 599 8827 615Q8845 631 8873 631Q8888 631 8896 622Q8904 614 8910 602Q8916 590 8924 577Q8932 564 8947 555Q8966 544 8995 539Q9024 534 9056 530Q9088 526 9120 522Q9152 518 9177 508Q9203 499 9219 482Q9235 466 9235 438Q9235 424 9232 410Q9230 397 9225 385Q9213 343 9204 299Q9196 256 9196 213Q9196 176 9201 145Q9207 115 9222 93Q9237 71 9262 59Q9287 47 9326 47Q9382 47 9424 74Q9466 102 9498 147ZM9691 807Q9691 787 9682 767Q9673 747 9658 731Q9644 716 9625 706Q9606 696 9586 696Q9560 696 9544 713Q9529 730 9529 756Q9529 776 9538 795Q9547 815 9561 830Q9576 845 9594 854Q9613 864 9633 864Q9659 864 9675 848Q9691 832 9691 807ZM9965 147L9971 143Q9948 105 9916 73Q9885 42 9847 18Q9810 -5 9767 -18Q9725 -31 9680 -31Q9624 -31 9580 -12Q9537 7 9507 40Q9478 74 9462 119Q9447 165 9447 219Q9447 277 9464 329Q9481 381 9511 426Q9541 472 9581 510Q9622 548 9668 578L9680 569Q9631 511 9600 439Q9570 367 9570 289Q9570 244 9580 202Q9591 161 9613 129Q9636 97 9671 78Q9706 59 9756 59Q9815 59 9868 84Q9922 109 9965 147Z" fill="#76528b" style=""></path></g></g></g></svg>